<?xml version="1.0" encoding="utf-8"?>
<!-- Generator: Adobe Illustrator 19.2.1, SVG Export Plug-In . SVG Version: 6.00 Build 0)  -->
<svg version="1.1" id="Layer_1" xmlns="http://www.w3.org/2000/svg" xmlns:xlink="http://www.w3.org/1999/xlink" x="0px" y="0px"
	 viewBox="0 0 425.2 368.1" style="enable-background:new 0 0 425.2 368.1;" xml:space="preserve">
<style type="text/css">
	.st0{fill:#70C8D6;}
	.st1{fill:none;stroke:#231F20;stroke-width:5;stroke-miterlimit:10;}
	.st2{fill:#DEDEDE;}
</style>
<g id="left">
	<rect x="0.1" y="0" class="st0" width="92" height="368.1"/>
	<line class="st1" x1="0" y1="33.1" x2="92.1" y2="33.1"/>
	<line class="st1" x1="0" y1="63.3" x2="92.1" y2="63.3"/>
	<line class="st1" x1="0" y1="93.5" x2="92.1" y2="93.5"/>
	<line class="st1" x1="0" y1="123.7" x2="92.1" y2="123.7"/>
	<line class="st1" x1="0" y1="153.9" x2="92.1" y2="153.9"/>
	<line class="st1" x1="0" y1="184" x2="92.1" y2="184"/>
	<line class="st1" x1="0" y1="288.4" x2="92.1" y2="288.4"/>
</g>
<g id="central">
	<rect x="93.9" y="0" class="st2" width="235.5" height="368.1"/>
	<line class="st1" x1="93.9" y1="0" x2="93.9" y2="368.1"/>
	<line class="st1" x1="329.4" y1="0" x2="329.4" y2="368.1"/>
	<line class="st1" x1="93.9" y1="184.1" x2="329.4" y2="184.1"/>
	<line class="st1" x1="93.9" y1="85.1" x2="329.4" y2="85.1"/>
	<line class="st1" x1="93.9" y1="288.4" x2="329.4" y2="288.4"/>
</g>
<g id="right">
	<rect x="331.3" y="0" class="st0" width="93.9" height="368.1"/>
	<line class="st1" x1="331.2" y1="33.1" x2="425.2" y2="33.1"/>
	<line class="st1" x1="377.9" y1="184.1" x2="377.9" y2="33.1"/>
	<line class="st1" x1="330.9" y1="184.1" x2="424.9" y2="184.1"/>
</g>
</svg>
