<?xml version="1.0" encoding="utf-8"?>
<!-- Generator: Adobe Illustrator 22.0.1, SVG Export Plug-In . SVG Version: 6.00 Build 0)  -->
<svg version="1.2" baseProfile="tiny" id="Layer_1" xmlns="http://www.w3.org/2000/svg" xmlns:xlink="http://www.w3.org/1999/xlink"
	 x="0px" y="0px" viewBox="0 0 212.6 212.6" xml:space="preserve">
<polygon fill="#06426B" points="188.4,134.9 188.4,154 105.7,201.8 105.7,182.6 188.4,134.9 "/>
<polygon fill="#BBBBBB" points="171.9,125.3 105.7,163.5 105.7,144.4 188.4,96.7 188.4,96.7 188.4,115.8 "/>
<polygon fill="#BBBBBB" points="171.9,87.1 105.7,125.3 105.7,106.2 188.4,58.5 188.4,77.6 "/>
<polygon fill="#B5B5B5" points="188.4,58.5 105.7,106.2 23,58.5 105.7,10.7 "/>
<polygon fill="#B5B5B5" points="188.4,96.7 105.7,144.4 23,96.7 39.5,87.1 105.7,125.3 171.9,87.1 "/>
<polygon fill="#13293C" points="188.4,134.9 105.7,182.6 23,134.9 39.5,125.3 105.7,163.5 171.9,125.3 "/>
<polygon fill="#FB9738" points="105.7,182.6 105.7,201.8 23,154 23,134.9 "/>
<polygon fill="#E0E0E0" points="105.7,144.4 105.7,163.5 39.5,125.3 23,115.8 23,96.7 "/>
<polygon fill="#E0E0E0" points="105.7,106.2 105.7,125.3 39.5,87.1 23,77.6 23,58.5 "/>
</svg>
