<?xml version="1.0" encoding="utf-8"?>
<!-- Generator: Adobe Illustrator 22.0.1, SVG Export Plug-In . SVG Version: 6.00 Build 0)  -->
<svg version="1.2" baseProfile="tiny" id="Layer_1" xmlns="http://www.w3.org/2000/svg" xmlns:xlink="http://www.w3.org/1999/xlink"
	 x="0px" y="0px" viewBox="0 0 212.6 212.6" xml:space="preserve">
<polygon fill="#BBBBBB" points="189,134.9 189,154 106.3,201.8 106.3,182.6 189,134.9 "/>
<polygon fill="#06426B" points="189,96.7 189,115.8 172.5,125.3 106.3,163.5 106.3,144.4 189,96.7 "/>
<polygon fill="#BBBBBB" points="189,58.5 189,77.6 172.5,87.1 106.3,125.3 106.3,106.2 "/>
<polygon fill="#B5B5B5" points="189,58.5 106.3,106.2 23.6,58.5 106.3,10.7 "/>
<polygon fill="#13293C" points="189,96.7 106.3,144.4 23.6,96.7 40.1,87.1 106.3,125.3 172.5,87.1 "/>
<polygon fill="#B5B5B5" points="189,134.9 106.3,182.6 23.6,134.9 40.1,125.3 106.3,163.5 172.5,125.3 "/>
<polygon fill="#E0E0E0" points="106.3,182.6 106.3,201.8 23.6,154 23.6,134.9 "/>
<polygon fill="#FB9738" points="106.3,144.4 106.3,163.5 40.1,125.3 23.6,115.8 23.6,96.7 "/>
<polygon fill="#E0E0E0" points="106.3,106.2 106.3,125.3 40.1,87.1 23.6,77.6 23.6,58.5 "/>
</svg>
