<?xml version="1.0" encoding="utf-8"?>
<!-- Generator: Adobe Illustrator 22.0.1, SVG Export Plug-In . SVG Version: 6.00 Build 0)  -->
<svg version="1.2" baseProfile="tiny" id="Layer_1" xmlns="http://www.w3.org/2000/svg" xmlns:xlink="http://www.w3.org/1999/xlink"
	 x="0px" y="0px" viewBox="0 0 212.6 212.6" xml:space="preserve">
<polygon fill="#BBBBBB" points="188.6,134.9 188.6,154 105.9,201.8 105.9,182.6 188.6,134.9 "/>
<polygon fill="#BBBBBB" points="172,125.3 105.9,163.5 105.9,144.4 188.6,96.7 188.6,96.7 188.6,115.8 "/>
<polygon fill="#06426B" points="172,87.1 105.9,125.3 105.9,106.2 188.6,58.5 188.6,77.6 "/>
<polygon fill="#13293C" points="188.6,58.5 105.9,106.2 23.2,58.5 105.9,10.7 "/>
<polygon fill="#B5B5B5" points="188.6,96.7 105.9,144.4 23.2,96.7 39.7,87.1 105.9,125.3 172,87.1 "/>
<polygon fill="#B5B5B5" points="188.6,134.9 105.9,182.6 23.2,134.9 39.7,125.3 105.9,163.5 172,125.3 "/>
<polygon fill="#E0E0E0" points="105.9,182.6 105.9,201.8 23.2,154 23.2,134.9 "/>
<polygon fill="#E0E0E0" points="105.9,144.4 105.9,163.5 39.7,125.3 23.2,115.8 23.2,96.7 "/>
<polygon fill="#FB9738" points="105.9,106.2 105.9,125.3 39.7,87.1 23.2,77.6 23.2,58.5 "/>
</svg>
