<?xml version="1.0" encoding="utf-8"?>
<!-- Generator: Adobe Illustrator 22.0.1, SVG Export Plug-In . SVG Version: 6.00 Build 0)  -->
<svg version="1.2" baseProfile="tiny" id="Layer_1" xmlns="http://www.w3.org/2000/svg" xmlns:xlink="http://www.w3.org/1999/xlink"
	 x="0px" y="0px" viewBox="0 0 212.6 212.6" xml:space="preserve">
<polygon fill="#06426B" points="188.9,134.9 188.9,154 106.2,201.8 106.2,182.6 188.9,134.9 "/>
<polygon fill="#06426B" points="188.9,96.7 188.9,115.8 172.3,125.3 106.2,163.5 106.2,144.4 188.9,96.7 "/>
<polygon fill="#06426B" points="188.9,58.5 188.9,77.6 172.3,87.1 106.2,125.3 106.2,106.2 "/>
<polygon fill="#13293C" points="188.9,58.5 106.2,106.2 23.5,58.5 106.2,10.7 "/>
<polygon fill="#13293C" points="188.9,96.7 106.2,144.4 23.5,96.7 40,87.1 106.2,125.3 172.3,87.1 "/>
<polygon fill="#13293C" points="188.9,134.9 106.2,182.6 23.5,134.9 40,125.3 106.2,163.5 172.3,125.3 "/>
<polygon fill="#FB9738" points="106.2,182.6 106.2,201.8 23.5,154 23.5,134.9 "/>
<polygon fill="#FB9738" points="106.2,144.4 106.2,163.5 40,125.3 23.5,115.8 23.5,96.7 "/>
<polygon fill="#FB9738" points="106.2,106.2 106.2,125.3 40,87.1 23.5,77.6 23.5,58.5 "/>
</svg>
