<?xml version="1.0" encoding="utf-8"?>
<!-- Generator: Adobe Illustrator 22.0.1, SVG Export Plug-In . SVG Version: 6.00 Build 0)  -->
<svg version="1.2" baseProfile="tiny" id="Layer_1" xmlns="http://www.w3.org/2000/svg" xmlns:xlink="http://www.w3.org/1999/xlink"
	 x="0px" y="0px" viewBox="0 0 212.6 212.6" xml:space="preserve">
<polygon fill="#BBBBBB" points="188.3,119.9 188.3,155.7 105.7,203.4 105.7,108 188.3,60.3 188.3,96.1 167.6,108 147,119.9 147,108 
	131.5,134.8 126.3,143.8 147,155.7 147,143.8 "/>
<polygon fill="#B6B6B5" points="188.3,60.3 105.7,108 23,60.3 54,42.4 74.7,54.3 95.3,66.2 85,72.2 116,72.2 126.3,72.2 126.3,48.3 
	116,54.3 74.7,30.5 105.7,12.6 "/>
<polygon fill="#DCDCDC" points="188.3,119.9 147,143.8 131.5,134.8 147,108 147,119.9 167.6,108 "/>
<polygon fill="#D3D3D3" points="147,143.8 147,155.7 126.3,143.8 131.5,134.8 "/>
<polygon fill="#D3D3D3" points="126.3,48.3 126.3,72.2 116,72.2 116,54.3 "/>
<polygon fill="#DCDCDC" points="116,54.3 116,72.2 85,72.2 95.3,66.2 74.7,54.3 74.7,30.5 "/>
<polygon fill="#E0E0E0" points="105.7,108 105.7,203.4 74.7,185.5 74.7,161.7 74.7,137.8 85,143.8 69.5,116.9 64.3,108 43.7,119.9 
	54,125.9 54,173.6 23,155.7 23,60.3 "/>
<polygon fill="#DCDCDC" points="69.5,116.9 85,143.8 74.7,137.8 74.7,161.7 54,173.6 54,125.9 "/>
<polygon fill="#D3D3D3" points="64.3,108 69.5,116.9 54,125.9 43.7,119.9 "/>
</svg>
