<?xml version="1.0" encoding="utf-8"?>
<!-- Generator: Adobe Illustrator 22.0.1, SVG Export Plug-In . SVG Version: 6.00 Build 0)  -->
<svg version="1.2" baseProfile="tiny" id="Layer_1" xmlns="http://www.w3.org/2000/svg" xmlns:xlink="http://www.w3.org/1999/xlink"
	 x="0px" y="0px" viewBox="0 0 212.6 212.6" xml:space="preserve">
<polygon fill="#03426B" points="188.5,119.4 188.5,155.2 105.9,202.9 105.9,107.5 188.5,59.8 188.5,95.6 167.8,107.5 147.2,119.4 
	147.2,107.5 131.7,134.3 126.5,143.3 147.2,155.2 147.2,143.3 "/>
<polygon fill="#14293C" points="188.5,59.8 105.9,107.5 23.2,59.8 54.2,41.9 74.9,53.8 95.5,65.7 85.2,71.7 116.2,71.7 126.5,71.7 
	126.5,47.9 116.2,53.8 74.9,30 105.9,12.1 "/>
<polygon fill="#F4963D" points="188.5,119.4 147.2,143.3 131.7,134.3 147.2,107.5 147.2,119.4 167.8,107.5 "/>
<polygon fill="#B07550" points="147.2,143.3 147.2,155.2 126.5,143.3 131.7,134.3 "/>
<polygon fill="#B07550" points="126.5,47.9 126.5,71.7 116.2,71.7 116.2,53.8 "/>
<polygon fill="#F4963D" points="116.2,53.8 116.2,71.7 85.2,71.7 95.5,65.7 74.9,53.8 74.9,30 "/>
<polygon fill="#648CA6" points="105.9,107.5 105.9,202.9 74.9,185 74.9,161.2 74.9,137.3 85.2,143.3 69.7,116.4 64.5,107.5 
	43.9,119.4 54.2,125.4 54.2,173.1 23.2,155.2 23.2,59.8 "/>
<polygon fill="#F4963D" points="69.7,116.4 85.2,143.3 74.9,137.3 74.9,161.2 54.2,173.1 54.2,125.4 "/>
<polygon fill="#B07550" points="64.5,107.5 69.7,116.4 54.2,125.4 43.9,119.4 "/>
</svg>
