<?xml version="1.0" encoding="utf-8"?>
<!-- Generator: Adobe Illustrator 22.0.1, SVG Export Plug-In . SVG Version: 6.00 Build 0)  -->
<svg version="1.2" baseProfile="tiny" id="Layer_1" xmlns="http://www.w3.org/2000/svg" xmlns:xlink="http://www.w3.org/1999/xlink"
	 x="0px" y="0px" viewBox="0 0 212.6 212.6" xml:space="preserve">
<path fill="#CCCCCB" d="M191.8,108.1c6.5,5.3,9.8,11.2,9.9,17.5c0.1,1.5-0.1,3-0.4,4.6c-0.3-3-2.1-8.7-9.2-13l-9.8-5.7l-26.7-15.4
	h-0.3V87L191.8,108.1z"/>
<polygon fill="#D3D3D3" points="137,65.9 155.2,97.5 148.1,103 129.8,71.4 "/>
<path fill="#DCDCDC" d="M17,156.2l38.7,22.4l-9.8,5.7c-7.3,4-13.1,2.8-15.8,1.5C23.9,180.4,19.6,170.5,17,156.2z"/>
<polygon fill="#B6B6B5" points="82.4,163.2 55.7,178.6 17,156.2 99.6,108.5 182.3,156.2 99.6,203.9 81.8,193.6 108.8,178 
	117.9,183.3 117.9,162.2 116.7,153.3 80.2,153.3 81.3,162.2 82.6,162.9 "/>
<path fill="#CCCCCB" d="M30,185.8c2.7,1.3,8.5,2.5,15.8-1.5l9.8-5.7l26.7-15.4l0.1-0.2l7.9,4.6l-36.5,21.1c-7.8,2.9-14.4,2.9-19.9,0
	C32.7,187.9,31.3,186.9,30,185.8z"/>
<polygon fill="#BBBBBB" points="60.9,66.3 60.9,35.5 99.6,13.1 99.6,108.5 17,156.2 17,60.8 34.9,50.5 34.9,81.7 25.7,87 44,97.5 
	52.3,101 70.6,69.3 62.3,65.9 61,66.6 "/>
<polygon fill="#D3D3D3" points="116.7,153.3 117.9,162.2 81.3,162.2 80.2,153.3 "/>
<path fill="#DCDCDC" d="M62.3,65.9L44,97.5L25.7,87l9.1-5.3V50.5v-11c1.4-7.9,5.2-12.6,9.8-16.4c5.5-4.6,12-7.9,18.4-11.3
	c-5.2,3.3-8.5,9.1-9.9,17.2v42.2l7.9-4.6L62.3,65.9z"/>
<path fill="#DCDCDC" d="M155.2,97.5L137,65.9l18.3-10.5v10.5l27,15.6l9.5,5.5c6.1,5.1,8.3,10.8,9.3,16.7c1.2,7.1,0.8,14.6,0.6,21.9
	c-0.2-6.3-3.5-12.1-9.9-17.5L155.2,87v9.1V97.5z"/>
<path fill="#DCDCDC" d="M99.6,13.1L60.9,35.5V24.1c0.2-8.4,4.2-12.8,6.6-14.5C75.2,7.1,85.9,8.2,99.6,13.1z"/>
<path fill="#DCDCDC" d="M34.1,188.6c5.5,2.9,12.1,2.9,19.9,0l36.5-21.1l-7.9-4.6l-1.2-0.7H118v21.1l-9.1-5.3l-27,15.6l-9.5,5.5
	c-7.5,2.7-13.5,1.8-19.1-0.3C46.4,196.4,40.3,192.4,34.1,188.6z"/>
<polygon fill="#D6D6D6" points="155.5,96.1 182.3,111.5 182.3,156.2 99.6,108.5 99.6,13.1 182.3,60.8 182.3,81.5 155.2,65.9 
	155.2,55.3 137,65.9 129.8,71.4 148.1,103 155.2,97.5 155.2,96.1 "/>
<polygon fill="#D3D3D3" points="70.6,69.3 52.3,101 44,97.5 62.3,65.9 "/>
<path fill="#CCCCCB" d="M67.5,9.6c-2.4,1.7-6.4,6.2-6.6,14.5v11.3v30.9l0.1,0.2l-7.9,4.6V28.9c1.4-8.1,4.7-13.9,9.9-17.2l0,0
	C64.4,10.9,65.9,10.2,67.5,9.6z"/>
<path fill="#DCDCDC" d="M192.1,117.2c7.1,4.3,9,10,9.2,13c-1.6,8-8,16.7-19.1,26.1v-44.7L192.1,117.2z"/>
</svg>
