<?xml version="1.0" encoding="utf-8"?>
<!-- Generator: Adobe Illustrator 22.0.1, SVG Export Plug-In . SVG Version: 6.00 Build 0)  -->
<svg version="1.2" baseProfile="tiny" id="Layer_1" xmlns="http://www.w3.org/2000/svg" xmlns:xlink="http://www.w3.org/1999/xlink"
	 x="0px" y="0px" viewBox="0 0 212.6 212.6" xml:space="preserve">
<path fill="#F4963D" d="M200.9,103.1c1.2,7.1,0.8,14.5,0.6,21.9c-0.2-6.3-3.5-12.1-9.9-17.5L155,86.4v9.1V97l-18.3-31.7L155,54.8
	v10.6L182,81l9.5,5.5C197.7,91.6,199.9,97.2,200.9,103.1z"/>
<path fill="#735D5E" d="M201.5,125c0.1,1.5-0.1,3-0.4,4.6c-0.3-3-2.1-8.7-9.2-13L182,111l-26.7-15.4H155v-9.1l36.5,21.1
	C198,112.9,201.4,118.7,201.5,125z"/>
<path fill="#F4963D" d="M191.9,116.7c7.1,4.3,9,10,9.2,13c-1.6,8-8,16.7-19.1,26.1V111L191.9,116.7z"/>
<polygon fill="#648CA6" points="182,111 182,155.7 99.4,108 99.4,12.6 182,60.3 182,80.9 155,65.3 155,54.8 136.8,65.3 129.6,70.8 
	147.9,102.5 155,97 155,95.6 155.3,95.6 "/>
<polygon fill="#14293C" points="182,155.7 99.4,203.4 81.5,193.1 108.5,177.5 117.7,182.8 117.7,161.7 116.5,152.7 79.9,152.7 
	81.1,161.7 82.4,162.4 82.2,162.6 55.5,178.1 16.8,155.7 99.4,108 "/>
<polygon fill="#B07550" points="136.8,65.3 155,97 147.9,102.5 129.6,70.8 "/>
<path fill="#F4963D" d="M117.7,161.7v21.1l-9.1-5.3l-27,15.6l-9.5,5.5c-7.5,2.7-13.5,1.8-19.1-0.3c-6.7-2.4-12.8-6.5-19-10.3
	c5.5,2.9,12.1,2.9,19.9,0l36.4-21l-7.9-4.6l-1.2-0.7H117.7z"/>
<polygon fill="#B07550" points="116.5,152.7 117.7,161.7 81.1,161.7 79.9,152.7 "/>
<polygon fill="#03426B" points="99.4,12.6 99.4,108 16.8,155.7 16.8,60.3 34.6,50 34.6,81.1 25.5,86.4 43.8,97 52.1,100.4 
	70.4,68.8 62.1,65.3 60.8,66 60.7,65.8 60.7,34.9 "/>
<path fill="#F4963D" d="M99.4,12.6L60.7,34.9V23.6c0.2-8.3,4.2-12.8,6.6-14.5C75,6.5,85.7,7.7,99.4,12.6z"/>
<path fill="#735D5E" d="M55.5,178.1l26.7-15.4l0.1-0.2l7.9,4.6l-36.5,21.1c-7.8,2.9-14.4,2.9-19.9,0c-1.4-0.7-2.7-1.7-4-2.8
	c2.7,1.3,8.6,2.5,15.8-1.5L55.5,178.1z"/>
<polygon fill="#B07550" points="70.4,68.8 52.1,100.4 43.8,97 62.1,65.3 "/>
<path fill="#735D5E" d="M62.9,11.2c1.3-0.9,2.8-1.6,4.4-2.1c-2.5,1.7-6.4,6.2-6.6,14.5v11.3v30.9l0.1,0.2l-7.9,4.6V28.4
	C54.3,20.2,57.6,14.5,62.9,11.2C62.8,11.2,62.9,11.2,62.9,11.2z"/>
<path fill="#F4963D" d="M62.1,65.3L43.8,97L25.5,86.4l9.1-5.3V50V39c1.4-7.9,5.2-12.6,9.8-16.4c5.5-4.6,12-7.9,18.4-11.3
	c-5.2,3.3-8.5,9-9.9,17.2v42.2l7.9-4.6L62.1,65.3z"/>
<path fill="#F4963D" d="M16.8,155.7l38.7,22.4l-9.8,5.7c-7.3,4-13.1,2.8-15.8,1.5C23.7,179.8,19.4,170,16.8,155.7z"/>
</svg>
